# xmcd
#
# Track frame offsets:
#	150
#	17592
#	35020
#	53102
#	68542
#	85187
#	104575
#	121487
#	139417
#	152542
#
# Disc length: 2262 seconds
#
# Revision: 0
# Processed by: cddbd v1.4PL0 Copyright (c) Steve Scherf et al.
# Submitted via: EasyCDDAExtractor 5.0.4.1
#
DISCID=8108d40a
DTITLE=LA BANDA LOCA - se soltaron los locos
DYEAR=1900
DGENRE=blues
TTITLE0=Oh Y Que Fue
TTITLE1=Tengo Hambre
TTITLE2=Se Muere Mi Corazón
TTITLE3=Chicas Del Solar
TTITLE4=La Mujer Quejosa
TTITLE5=Unda - Unda
TTITLE6=Yo Donaré
TTITLE7=De Qué Te Quejas
TTITLE8=El Premio Mayor
TTITLE9=Navidad Loca
EXTD=
EXTT0=
EXTT1=
EXTT2=
EXTT3=
EXTT4=
EXTT5=
EXTT6=
EXTT7=
EXTT8=
EXTT9=
PLAYORDER=
